<svg height="428pt" viewBox="0 -64 428.854 428" width="428pt" xmlns="http://www.w3.org/2000/svg"><path d="m338.988281 249.917969 3.152344-43.589844h-255.363281l3.148437 43.589844c82.773438 9.085937 166.289063 9.085937 249.0625 0zm0 0"/><path d="m214.425781 300.257812c59.488281 0 115.648438-5.300781 158.128907-14.988281 32.976562-7.515625 49.316406-15.941406 56.300781-21.941406h-82.902344l-1.257813.113281c-86.566406 9.816406-173.96875 9.804688-260.535156-.03125l-1.199218-.082031h-82.960938c6.980469 6 23.316406 14.441406 56.300781 21.957031 42.476563 9.683594 98.632813 14.972656 158.125 14.972656zm0 0"/><path d="m343.148438 192.328125 11.9375-165.246094c-8.601563 3-20.507813 5.144531-34.679688 7.027344-28.355469 3.773437-66 5.851563-105.980469 5.851563-39.984375 0-77.625-2.078126-105.984375-5.851563-14.042968-1.867187-25.152344-4.070313-33.015625-6.542969-.476562-.148437-1.015625-.320312-1.601562-.511718l11.941406 165.273437zm0 0"/><path d="m214.425781 25.960938c36.046875 0 70.710938-1.742188 97.609375-4.910157 23.476563-2.765625 34.824219-5.820312 40.179688-7.855469-5.355469-2.035156-16.699219-5.09375-40.179688-7.855468-26.898437-3.167969-61.5625-4.914063-97.609375-4.914063s-70.714843 1.746094-97.613281 4.914063c-23.472656 2.761718-34.824219 5.820312-40.179688 7.855468 5.355469 2.035157 16.703126 5.089844 40.179688 7.855469 26.898438 3.167969 61.566406 4.910157 97.613281 4.910157zm0 0"/></svg>